<?xml version="1.0" encoding="iso-8859-1"?>
<!-- Generator: Adobe Illustrator 19.0.0, SVG Export Plug-In . SVG Version: 6.00 Build 0)  -->
<svg version="1.1" id="Capa_1" xmlns="http://www.w3.org/2000/svg" xmlns:xlink="http://www.w3.org/1999/xlink" x="0px" y="0px"
	 viewBox="0 0 487.997 487.997" style="enable-background:new 0 0 487.997 487.997;" xml:space="preserve">
<path style="fill:#88D0EF;" d="M319.997,279.998c-4.031-0.005-7.428-3.008-7.928-7.008l-1.672-13.168
	c-3.965-31.773-16.656-61.826-36.664-86.824c-2.761-3.451-2.203-8.487,1.248-11.248c3.451-2.761,8.487-2.203,11.248,1.248
	c21.849,27.307,35.71,60.13,40.048,94.832l1.6,13.176c0.547,4.383-2.562,8.379-6.944,8.928
	C320.622,279.973,320.309,279.994,319.997,279.998z"/>
<path style="fill:#E5D8A1;" d="M63.997,271.998c-0.011-17.16,9.139-33.02,24-41.6l40,41.6H63.997z"/>
<path style="fill:#B2873D;" d="M143.997,287.998c-2.122,0-4.156-0.844-5.656-2.344l-72-72c-3.069-3.178-2.981-8.243,0.197-11.312
	c3.1-2.994,8.015-2.994,11.115,0l72,72c3.124,3.125,3.123,8.19-0.002,11.314C148.151,287.155,146.117,287.998,143.997,287.998
	L143.997,287.998z"/>
<path style="fill:#A9BFD1;" d="M479.997,423.998h-464c-4.418,0-8-3.582-8-8s3.582-8,8-8h464c4.418,0,8,3.582,8,8
	S484.415,423.998,479.997,423.998z"/>
<g>
	<path style="fill:#5A6570;" d="M239.997,247.998c-4.418,0-8-3.582-8-8v-32c0-4.418,3.582-8,8-8s8,3.582,8,8v32
		C247.997,244.417,244.415,247.998,239.997,247.998z"/>
	<path style="fill:#5A6570;" d="M271.997,287.998c-4.418,0-8-3.582-8-8v-38.312c0-4.584-6.4-9.688-15.584-9.688h-8.416
		c-4.418,0-8-3.582-8-8s3.582-8,8-8h8.416c17.712,0,31.584,11.28,31.584,25.688v38.312
		C279.997,284.417,276.415,287.998,271.997,287.998z"/>
</g>
<path style="fill:#C63846;" d="M23.997,271.998h416v112h-416V271.998z"/>
<path style="fill:#751616;" d="M191.997,311.998h-16c-4.418,0-8-3.582-8-8s3.582-8,8-8h16c4.418,0,8,3.582,8,8
	S196.415,311.998,191.997,311.998z"/>
<g>
	<path style="fill:#FFF89B;" d="M247.997,103.998c-4.418,0-8-3.582-8-8v-24c0-4.418,3.582-8,8-8s8,3.582,8,8v24
		C255.997,100.417,252.415,103.998,247.997,103.998z"/>
	<path style="fill:#FFF89B;" d="M299.765,110.814c-0.7,0-1.397-0.094-2.072-0.28c-4.264-1.144-6.796-5.526-5.656-9.792l6.208-23.2
		c1.144-4.268,5.532-6.8,9.8-5.656c4.268,1.144,6.8,5.532,5.656,9.8l0,0l-6.208,23.2
		C306.555,108.383,303.385,110.815,299.765,110.814z"/>
	<path style="fill:#FFF89B;" d="M347.997,130.798c-4.418-0.005-7.996-3.59-7.992-8.008c0.001-1.402,0.371-2.778,1.072-3.992l12-20.8
		c2.235-3.811,7.136-5.089,10.948-2.854c3.775,2.214,5.071,7.05,2.908,10.854l-12,20.8
		C353.502,129.276,350.857,130.801,347.997,130.798L347.997,130.798z"/>
	<path style="fill:#FFF89B;" d="M389.421,162.574c-4.418-0.001-7.999-3.583-7.998-8.002c0-2.121,0.843-4.155,2.342-5.654
		l16.968-16.968c3.178-3.07,8.242-2.982,11.312,0.196c2.994,3.1,2.994,8.015,0,11.116l-16.968,16.968
		C393.577,161.731,391.542,162.574,389.421,162.574L389.421,162.574z"/>
	<path id="SVGCleanerId_0" style="fill:#FFF89B;" d="M421.213,203.998c-4.418,0-8-3.582-8-8c0-2.858,1.525-5.499,4-6.928l20.8-12
		c3.841-2.184,8.725-0.841,10.909,3c2.163,3.805,0.867,8.642-2.909,10.856l-20.8,12
		C423.996,203.628,422.617,203.998,421.213,203.998L421.213,203.998z"/>
	<g>
		<path id="SVGCleanerId_0_1_" style="fill:#FFF89B;" d="M421.213,203.998c-4.418,0-8-3.582-8-8c0-2.858,1.525-5.499,4-6.928
			l20.8-12c3.841-2.184,8.725-0.841,10.909,3c2.163,3.805,0.867,8.642-2.909,10.856l-20.8,12
			C423.996,203.628,422.617,203.998,421.213,203.998L421.213,203.998z"/>
	</g>
	<path style="fill:#FFF89B;" d="M194.157,111.086c-3.618-0.003-6.783-2.434-7.72-5.928l-6.216-23.2
		c-1.144-4.268,1.388-8.656,5.656-9.8c4.268-1.144,8.656,1.388,9.8,5.656l0,0l6.208,23.2c1.144,4.268-1.388,8.655-5.655,9.799
		C195.553,110.995,194.856,111.086,194.157,111.086z"/>
	<path style="fill:#FFF89B;" d="M143.997,131.862c-2.861,0.003-5.506-1.522-6.936-4l-12-20.8c-2.184-3.841-0.841-8.725,3-10.909
		c3.805-2.163,8.642-0.867,10.856,2.909l12,20.8c2.209,3.826,0.898,8.719-2.928,10.928
		C146.775,131.491,145.398,131.861,143.997,131.862z"/>
	<path style="fill:#FFF89B;" d="M100.917,164.918c-2.122,0-4.156-0.844-5.656-2.344l-16.968-16.976
		c-3.251-2.992-3.461-8.053-0.469-11.304c2.992-3.251,8.053-3.461,11.304-0.469c0.163,0.15,0.319,0.306,0.469,0.469l16.968,16.968
		c3.124,3.125,3.123,8.19-0.002,11.314c-1.5,1.499-3.534,2.342-5.654,2.342L100.917,164.918z"/>
</g>
<g>
	<path style="fill:#D1E3EE;" d="M47.997,351.998H15.085c-8.119,7.079-9.435,19.208-3.024,27.864l3.024,4.136h32.912V351.998z"/>
	<path style="fill:#D1E3EE;" d="M448.069,351.998h-32.072v32h32.072l3.384-4.136c6.827-8.079,5.811-20.163-2.268-26.99
		C448.823,352.567,448.451,352.276,448.069,351.998z"/>
</g>
<circle style="fill:#5A6570;" cx="111.997" cy="375.998" r="40"/>
<circle style="fill:#D1E3EE;" cx="111.997" cy="375.998" r="24"/>
<circle style="fill:#5A6570;" cx="343.997" cy="375.998" r="40"/>
<circle style="fill:#D1E3EE;" cx="343.997" cy="375.998" r="24"/>
<path d="M479.997,407.998H379.709c4.186-4.662,7.42-10.097,9.52-16h58.872c2.4,0,4.673-1.078,6.192-2.936l3.384-4.144
	c4.772-5.679,7-13.07,6.16-20.44c-1-7.375-4.83-14.071-10.68-18.672c-1.425-1.171-3.212-1.81-5.056-1.808h-0.104v-72
	c0-4.418-3.582-8-8-8H327.093l-0.8-6.168c-4.338-34.702-18.199-67.525-40.048-94.832c-2.761-3.451-7.797-4.009-11.248-1.248
	c-3.451,2.761-4.009,7.797-1.248,11.248c20.008,24.998,32.699,55.051,36.664,86.824l0.52,4.176h-30.936v-22.312
	c0-14.408-13.84-25.688-31.552-25.688h-0.448v-8c0-4.418-3.582-8-8-8s-8,3.582-8,8v32c0,4.418,3.582,8,8,8s8-3.582,8-8v-8h0.416
	c9.184,0,15.584,5.104,15.584,9.688v22.312H139.341l-61.656-61.656c-3.277-2.963-8.336-2.709-11.299,0.569
	c-2.759,3.051-2.754,7.698,0.011,10.743l12.976,12.976c-12.311,8.876-20.508,22.354-22.728,37.368H23.997c-4.418,0-8,3.582-8,8v72
	h-0.88c-1.999,0-3.925,0.747-5.4,2.096c-11.156,9.808-12.946,26.524-4.12,38.472l3.024,4.144c1.512,2.075,3.928,3.298,6.496,3.288
	h51.712c2.1,5.903,5.334,11.338,9.52,16H15.997c-4.418,0-8,3.582-8,8s3.582,8,8,8h464c4.418,0,8-3.582,8-8
	S484.415,407.998,479.997,407.998L479.997,407.998z M157.197,391.998h141.6c2.1,5.903,5.334,11.338,9.52,16H147.709
	c4.186-4.662,7.42-10.097,9.52-16H157.197z M311.997,375.998c0-17.673,14.327-32,32-32s32,14.327,32,32s-14.327,32-32,32
	S311.997,393.671,311.997,375.998z M445.253,374.798l-0.976,1.2h-20.28v-16H444.9c1.641,1.772,2.697,4.007,3.024,6.4
	c0.324,3.045-0.632,6.088-2.64,8.4H445.253z M90.853,238.134l25.864,25.864H72.933C75.131,253.295,81.604,243.953,90.853,238.134z
	 M19.197,375.998l-0.624-0.856c-3.393-4.483-3.376-10.679,0.04-15.144h21.384v16H19.197z M55.997,375.998v-24c0-4.418-3.582-8-8-8
	h-16v-64h400v64h-16c-4.418,0-8,3.582-8,8v24h-16c0-26.51-21.49-48-48-48s-48,21.49-48,48h-136c0-26.51-21.49-48-48-48
	s-48,21.49-48,48H55.997z M79.996,375.998c0-17.673,14.327-32,32-32s32,14.327,32,32s-14.327,32-32,32
	S79.996,393.671,79.996,375.998z"/>
<path d="M175.997,311.998h16c4.418,0,8-3.582,8-8s-3.582-8-8-8h-16c-4.418,0-8,3.582-8,8S171.578,311.998,175.997,311.998z"/>
<path d="M255.997,95.998v-24c0-4.418-3.582-8-8-8s-8,3.582-8,8v24c0,4.418,3.582,8,8,8S255.997,100.417,255.997,95.998z"/>
<path d="M299.797,110.814c3.62-0.004,6.786-2.439,7.72-5.936l6.216-23.2c1.309-4.22-1.051-8.702-5.271-10.011
	c-4.22-1.309-8.702,1.051-10.011,5.271c-0.067,0.217-0.126,0.438-0.174,0.66l-6.208,23.2c-1.14,4.266,1.392,8.648,5.656,9.792
	C298.402,110.758,299.099,110.833,299.797,110.814z"/>
<path d="M347.997,130.798c2.861,0.003,5.506-1.522,6.936-4l12-20.8c2.183-3.841,0.84-8.725-3.002-10.908
	c-3.805-2.163-8.641-0.867-10.854,2.908l-12,20.8c-2.209,3.826-0.898,8.719,2.928,10.928
	C345.218,130.427,346.595,130.797,347.997,130.798L347.997,130.798z"/>
<path d="M400.797,131.95l-16.968,16.968c-3.178,3.07-3.266,8.134-0.196,11.312c3.07,3.178,8.134,3.266,11.312,0.196
	c0.067-0.064,0.132-0.13,0.196-0.196l16.968-16.968c3.069-3.178,2.982-8.243-0.196-11.312
	C408.812,128.956,403.897,128.956,400.797,131.95z"/>
<path d="M421.245,203.998c1.404,0,2.784-0.37,4-1.072l20.8-12c3.812-2.234,5.09-7.136,2.856-10.947
	c-2.214-3.776-7.051-5.072-10.856-2.909l-20.8,12c-3.826,2.209-5.137,7.102-2.928,10.928
	C415.746,202.473,418.387,203.998,421.245,203.998L421.245,203.998z"/>
<path d="M194.189,111.086c4.418,0.001,8-3.581,8.001-7.999c0-0.7-0.092-1.397-0.273-2.073l-6.208-23.2
	c-1.144-4.268-5.532-6.8-9.8-5.656c-4.268,1.144-6.8,5.532-5.656,9.8l0,0l6.216,23.2
	C187.406,108.652,190.571,111.083,194.189,111.086L194.189,111.086z"/>
<path d="M144.037,131.862c4.418-0.005,7.996-3.59,7.992-8.008c-0.001-1.402-0.371-2.778-1.072-3.992l-12-20.8
	c-2.234-3.812-7.136-5.09-10.947-2.856c-3.776,2.214-5.072,7.051-2.909,10.856l12,20.8
	C138.531,130.34,141.176,131.865,144.037,131.862z"/>
<path d="M95.293,162.574c3.069,3.178,8.134,3.266,11.312,0.197c3.178-3.069,3.266-8.134,0.197-11.312
	c-0.064-0.067-0.13-0.132-0.197-0.197l-16.968-16.968c-3.221-3.025-8.284-2.865-11.308,0.355c-2.89,3.077-2.891,7.87-0.004,10.949
	L95.293,162.574z"/>
<g>
</g>
<g>
</g>
<g>
</g>
<g>
</g>
<g>
</g>
<g>
</g>
<g>
</g>
<g>
</g>
<g>
</g>
<g>
</g>
<g>
</g>
<g>
</g>
<g>
</g>
<g>
</g>
<g>
</g>
</svg>
