<?xml version="1.0" encoding="iso-8859-1"?>
<!-- Generator: Adobe Illustrator 19.0.0, SVG Export Plug-In . SVG Version: 6.00 Build 0)  -->
<svg version="1.1" id="Capa_1" xmlns="http://www.w3.org/2000/svg" xmlns:xlink="http://www.w3.org/1999/xlink" x="0px" y="0px"
	 viewBox="0 0 480 480" style="enable-background:new 0 0 480 480;" xml:space="preserve">
<g>
	<path style="fill:#A9BFD1;" d="M432.05,224c-2.122,0-4.156-0.844-5.656-2.344L240.05,35.312L53.706,221.656
		c-3.069,3.178-8.134,3.266-11.312,0.197c-3.178-3.069-3.266-8.134-0.197-11.312c0.064-0.067,0.13-0.132,0.197-0.197l192-192
		c3.124-3.123,8.188-3.123,11.312,0l192,192c3.124,3.125,3.123,8.19-0.002,11.314C436.205,223.157,434.171,224,432.05,224
		L432.05,224z"/>
	<path style="fill:#A9BFD1;" d="M373.402,480H106.698c-9.951-0.237-19.234-5.062-25.144-13.072
		c-6.302-8.37-9.645-18.596-9.504-29.072V232c0-4.418,3.582-8,8-8s8,3.582,8,8v205.856c-0.111,6.895,2.035,13.638,6.112,19.2
		c2.867,4.143,7.503,6.711,12.536,6.944h266.704c5.03-0.229,9.666-2.791,12.536-6.928c4.077-5.562,6.223-12.305,6.112-19.2V242
		c0-4.418,3.582-8,8-8s8,3.582,8,8v195.856c0.141,10.476-3.202,20.702-9.504,29.072C392.636,474.938,383.353,479.763,373.402,480z"
		/>
	<path style="fill:#A9BFD1;" d="M392.05,136c-4.418,0-8-3.582-8-8V26.544c0.315-5.474-3.841-10.18-9.312-10.544h-13.376
		c-5.471,0.364-9.627,5.07-9.312,10.544v50.024c0,4.418-3.582,8-8,8s-8-3.582-8-8V26.544C335.737,12.235,347.054,0.367,361.362,0
		h13.376c14.308,0.367,25.625,12.235,25.312,26.544V128C400.05,132.418,396.468,136,392.05,136z"/>
</g>
<path style="fill:#4091DB;" d="M160.05,208.592c25.793,5.327,52.647,0.504,74.976-13.464L240.05,192l5.024,3.128
	c22.329,13.968,49.183,18.791,74.976,13.464v118.72c0.021,14.562-3.798,28.873-11.072,41.488c-8.258,14.396-20.859,25.81-36,32.608
	L240.05,416l-32.904-14.624c-15.141-6.798-27.742-18.212-36-32.608c-7.277-12.604-11.104-26.902-11.096-41.456L160.05,208.592z"/>
<path style="fill:#C1D6E8;" d="M192.05,240c15.896,0.002,31.689-2.562,46.768-7.592L240.05,232v72h-48V240z"/>
<path style="fill:#2273AF;" d="M288.05,304v36c-9.631,16.854-25.392,29.345-44,34.872l-4,1.128v-72H288.05z"/>
<path style="fill:#A9BFD1;" d="M272.05,136h-64c-4.418-0.001-7.999-3.583-7.998-8.002c0-2.121,0.843-4.155,2.342-5.654l32-32
	c3.178-3.069,8.242-2.982,11.312,0.196c2.994,3.1,2.994,8.015,0,11.116L227.362,120h44.688c4.418,0,8,3.582,8,8
	C280.05,132.418,276.468,136,272.05,136L272.05,136z"/>
<path d="M53.738,221.656L240.05,35.312l186.4,186.344c3.178,3.07,8.242,2.982,11.312-0.196c2.994-3.1,2.994-8.015,0-11.116l-192-192
	c-3.124-3.123-8.188-3.123-11.312,0l-192,192c-3.178,3.069-3.266,8.134-0.197,11.312c3.069,3.178,8.134,3.266,11.312,0.197
	c0.067-0.064,0.132-0.13,0.197-0.197H53.738z"/>
<path d="M398.578,466.928c6.29-8.374,9.622-18.6,9.472-29.072V242c0-4.418-3.582-8-8-8s-8,3.582-8,8v195.856
	c0.111,6.895-2.035,13.638-6.112,19.2c-2.86,4.134-7.482,6.701-12.504,6.944H106.73c-5.03-0.229-9.666-2.791-12.536-6.928
	c-4.077-5.562-6.223-12.305-6.112-19.2V232c0-4.418-3.582-8-8-8s-8,3.582-8,8v205.856c-0.14,10.475,3.2,20.7,9.496,29.072
	c5.915,8.008,15.199,12.833,25.152,13.072h266.704C383.385,479.763,392.668,474.938,398.578,466.928z"/>
<path d="M344.05,84.568c4.418,0,8-3.582,8-8V26.544c-0.315-5.486,3.86-10.197,9.344-10.544h13.376
	c5.459,0.381,9.596,5.081,9.28,10.544V128c0,4.418,3.582,8,8,8s8-3.582,8-8V26.544C400.363,12.247,389.065,0.384,374.77,0h-13.376
	c-14.32,0.349-25.657,12.223-25.344,26.544v50.024C336.05,80.986,339.632,84.568,344.05,84.568z"/>
<path d="M161.706,200.8c-4.329-0.884-8.555,1.909-9.438,6.238c-0.107,0.524-0.161,1.058-0.162,1.594v118.72
	c-0.016,15.951,4.167,31.626,12.128,45.448c9.077,15.882,22.979,28.458,39.688,35.904l32.928,14.608
	c2.068,0.919,4.428,0.919,6.496,0l32.912-14.624c16.698-7.448,30.593-20.017,39.672-35.888c7.965-13.835,12.146-29.524,12.12-45.488
	v-118.72c-0.004-4.418-3.588-7.997-8.006-7.994c-0.535,0-1.069,0.055-1.594,0.162c-23.783,4.921-48.547,0.47-69.128-12.424
	l-5.024-3.128c-2.586-1.608-5.862-1.608-8.448,0l-5.024,3.128C210.253,201.242,185.491,205.707,161.706,200.8L161.706,200.8z
	 M239.306,201.96l0.8-0.496l0.8,0.496c21.211,13.256,46.298,18.906,71.144,16.024v109.328c0.03,13.154-3.406,26.083-9.96,37.488
	c-7.397,12.957-18.729,23.221-32.352,29.304l-29.688,13.144l-29.6-13.184c-13.625-6.07-24.965-16.319-32.376-29.264
	c-6.575-11.399-10.032-24.329-10.024-37.488V217.984c24.869,2.882,49.978-2.783,71.2-16.064L239.306,201.96z"/>
<path d="M192.05,312h40v64c0,4.418,3.582,8,8,8c0.73,0.002,1.457-0.098,2.16-0.296l4-1.136
	c20.592-6.066,38.042-19.856,48.704-38.488c0.738-1.233,1.131-2.643,1.136-4.08v-36c0-4.418-3.582-8-8-8h-40v-64
	c0-4.418-3.582-8-8.001-7.999c-0.856,0-1.707,0.138-2.519,0.407l-1.248,0.416c-14.262,4.757-29.198,7.18-44.232,7.176
	c-4.418,0-8,3.582-8,8v64C184.05,308.418,187.632,312,192.05,312L192.05,312z M280.05,337.752
	c-7.517,12.257-18.718,21.822-32,27.328V312h32V337.752z M200.05,247.8c10.812-0.559,21.536-2.24,32-5.016V296h-32V247.8z"/>
<path d="M245.738,90.344c-3.124-3.123-8.188-3.123-11.312,0l-32,32c-3.124,3.125-3.123,8.19,0.002,11.314
	c1.492,1.492,3.513,2.333,5.622,2.342h64c4.418,0,8-3.582,8-8c0-4.418-3.582-8-8-8h-44.656l18.344-18.344
	C248.861,98.532,248.861,93.468,245.738,90.344z"/>
<g>
</g>
<g>
</g>
<g>
</g>
<g>
</g>
<g>
</g>
<g>
</g>
<g>
</g>
<g>
</g>
<g>
</g>
<g>
</g>
<g>
</g>
<g>
</g>
<g>
</g>
<g>
</g>
<g>
</g>
</svg>
