<?xml version="1.0" encoding="iso-8859-1"?>
<!-- Generator: Adobe Illustrator 19.0.0, SVG Export Plug-In . SVG Version: 6.00 Build 0)  -->
<svg version="1.1" id="Capa_1" xmlns="http://www.w3.org/2000/svg" xmlns:xlink="http://www.w3.org/1999/xlink" x="0px" y="0px"
	 viewBox="0 0 480.106 480.106" style="enable-background:new 0 0 480.106 480.106;" xml:space="preserve">
<path style="fill:#A9BFD1;" d="M392.053,336c-4.418,0-8,3.582-8,8v40h-200v-40c0-4.418-3.582-8-8-8s-8,3.582-8,8v40h-72v-40
	c0-4.418-3.582-8-8-8s-8,3.582-8,8v96c0,4.418,3.582,8,8,8s8-3.582,8-8v-40h72v48h-32c-4.418,0-8,3.582-8,8v16c0,4.418,3.582,8,8,8
	s8-3.582,8-8v-8h64v8c0,4.418,3.582,8,8,8s8-3.582,8-8v-16c0-4.418-3.582-8-8-8h-32v-48h200v40c0,4.418,3.582,8,8,8s8-3.582,8-8v-96
	C400.053,339.582,396.471,336,392.053,336z"/>
<path style="fill:#D6D8E8;" d="M40.053,232h56v56h-56V232z"/>
<g>
	<path style="fill:#A9BFD1;" d="M240.053,80c-4.418,0-8,3.582-8,8v16h-96V88c0-4.418-3.582-8-8-8c-4.418,0-8,3.582-8,8v24
		c0,4.418,3.582,8,8,8h40v104c0,4.418,3.582,8,8,8s8-3.582,8-8V120h32v32c0,4.418,3.582,8,8,8s8-3.582,8-8v-32h8
		c4.418,0,8-3.582,8-8V88C248.053,83.582,244.471,80,240.053,80z"/>
	<path style="fill:#A9BFD1;" d="M472.053,296c-4.418,0-8-3.582-8-8v-80c0-4.418,3.582-8,8-8s8,3.582,8,8v80
		C480.053,292.418,476.471,296,472.053,296z"/>
	<path style="fill:#A9BFD1;" d="M8.053,296c-4.418,0-8-3.582-8-8V176c0-4.418,3.582-8,8-8s8,3.582,8,8v112
		C16.053,292.418,12.471,296,8.053,296z"/>
</g>
<g>
	<path style="fill:#5A6570;" d="M88.053,480c-13.255,0-24-10.745-24-24s10.745-24,24-24s24,10.745,24,24S101.308,480,88.053,480z
		 M88.053,448c-4.418,0-8,3.582-8,8s3.582,8,8,8s8-3.582,8-8S92.471,448,88.053,448z"/>
	<path style="fill:#5A6570;" d="M392.053,480c-13.255,0-24-10.745-24-24s10.745-24,24-24s24,10.745,24,24S405.308,480,392.053,480z
		 M392.053,448c-4.418,0-8,3.582-8,8s3.582,8,8,8s8-3.582,8-8S396.471,448,392.053,448z"/>
</g>
<path style="fill:#C1D6E8;" d="M0.053,280h480v64h-480V280z"/>
<path style="fill:#A5A9B7;" d="M0.053,328h480v16h-480V328z"/>
<path style="fill:#E2C7A1;" d="M144.053,280v-64h225.656c10.025-0.031,19.979,1.682,29.416,5.064
	c16.969,4.968,30.3,18.14,35.472,35.048L440.053,280H144.053z"/>
<path style="fill:#B59B7C;" d="M144.053,216h64v64h-64V216z"/>
<path style="fill:#A5A9B7;" d="M40.053,264h56v16h-56V264z"/>
<path style="fill:#A3E1EF;" d="M208.053,144h32v48h-32V144z"/>
<path style="fill:#C63846;" d="M416.053,48h-40V8h-32v40h-40v32h40v40h32V80h40V48z"/>
<path d="M376.053,0h-32c-4.418,0-8,3.582-8,8v32h-32c-4.418,0-8,3.582-8,8v32c0,4.418,3.582,8,8,8h32v32c0,4.418,3.582,8,8,8h32
	c4.418,0,8-3.582,8-8V88h32c4.418,0,8-3.582,8-8V48c0-4.418-3.582-8-8-8h-32V8C384.053,3.582,380.471,0,376.053,0z M408.053,56v16
	h-32c-4.418,0-8,3.582-8,8v32h-16V80c0-4.418-3.582-8-8-8h-32V56h32c4.418,0,8-3.582,8-8V16h16v32c0,4.418,3.582,8,8,8H408.053z"/>
<path d="M472.053,192c-4.418,0-8,3.582-8,8v72h-17.6l-4-17.664c-5.775-19.558-21.009-34.895-40.528-40.8
	c-10.327-3.693-21.217-5.566-32.184-5.536H184.053v-88h32v16h-8c-4.418,0-8,3.582-8,8v48c0,4.418,3.582,8,8,8h32
	c4.418,0,8-3.582,8-8v-48c0-4.418-3.582-8-8-8h-8v-16h8c4.418,0,8-3.582,8-8V88c0-4.418-3.582-8-8-8s-8,3.582-8,8v16h-96V88
	c0-4.418-3.582-8-8-8c-4.418,0-8,3.582-8,8v24c0,4.418,3.582,8,8,8h40v88h-24c-4.418,0-8,3.582-8,8v56h-32v-40c0-4.418-3.582-8-8-8
	h-56c-4.418,0-8,3.582-8,8v40h-16v-96c0-4.418-3.582-8-8-8s-8,3.582-8,8v168c0,4.418,3.582,8,8,8h72v81.472
	c-12.497,4.418-19.046,18.131-14.627,30.627c4.418,12.497,18.131,19.046,30.627,14.627c12.497-4.418,19.046-18.131,14.627-30.627
	c-2.416-6.835-7.793-12.211-14.627-14.627V400h72v48h-32c-4.418,0-8,3.582-8,8v16c0,4.418,3.582,8,8,8s8-3.582,8-8v-8h64v8
	c0,4.418,3.582,8,8,8s8-3.582,8-8v-16c0-4.418-3.582-8-8-8h-32v-48h200v33.472c-12.497,4.418-19.046,18.131-14.627,30.627
	c4.418,12.497,18.131,19.046,30.627,14.627c12.497-4.418,19.046-18.131,14.627-30.627c-2.416-6.835-7.793-12.211-14.627-14.627V352
	h72c4.418,0,8-3.582,8-8V200C480.053,195.582,476.471,192,472.053,192z M232.053,184h-16v-32h16V184z M396.381,228.584
	c14.386,4.093,25.786,15.085,30.4,29.312L430.053,272h-214v-48h153.688c9.089-0.026,18.113,1.525,26.672,4.584H396.381z
	 M152.053,224h48v48h-48V224z M48.053,240h40v32h-40V240z M88.053,464c-4.418,0-8-3.582-8-8s3.582-8,8-8s8,3.582,8,8
	S92.471,464,88.053,464z M96.053,384v-32h72v32H96.053z M392.053,464c-4.418,0-8-3.582-8-8s3.582-8,8-8s8,3.582,8,8
	S396.471,464,392.053,464z M384.053,384h-200v-32h200V384z M464.053,336h-448v-48h448V336z"/>
<g>
</g>
<g>
</g>
<g>
</g>
<g>
</g>
<g>
</g>
<g>
</g>
<g>
</g>
<g>
</g>
<g>
</g>
<g>
</g>
<g>
</g>
<g>
</g>
<g>
</g>
<g>
</g>
<g>
</g>
</svg>
